<svg xmlns="http://www.w3.org/2000/svg" viewBox="-72 -780 4370 874" role="img" aria-label="YardFlow">
  <title>YardFlow</title>
  <path fill="#0F172A" d="M246.0 0.0V-241.0L8.0 -700.0H155.0L303.0 -400.0H321.0L469.0 -700.0H616.0L378.0 -241.0V0.0ZM754.0 14.0Q701.0 14.0 659.0 -4.5Q617.0 -23.0 592.5 -58.5Q568.0 -94.0 568.0 -145.0Q568.0 -196.0 592.5 -230.5Q617.0 -265.0 660.5 -282.5Q704.0 -300.0 760.0 -300.0H896.0V-328.0Q896.0 -363.0 874.0 -385.5Q852.0 -408.0 804.0 -408.0Q757.0 -408.0 734.0 -386.5Q711.0 -365.0 704.0 -331.0L588.0 -370.0Q600.0 -408.0 626.5 -439.5Q653.0 -471.0 697.5 -490.5Q742.0 -510.0 806.0 -510.0Q904.0 -510.0 961.0 -461.0Q1018.0 -412.0 1018.0 -319.0V-134.0Q1018.0 -104.0 1046.0 -104.0H1086.0V0.0H1002.0Q965.0 0.0 941.0 -18.0Q917.0 -36.0 917.0 -66.0V-67.0H898.0Q894.0 -55.0 880.0 -35.5Q866.0 -16.0 836.0 -1.0Q806.0 14.0 754.0 14.0ZM776.0 -88.0Q829.0 -88.0 862.5 -117.5Q896.0 -147.0 896.0 -196.0V-206.0H769.0Q734.0 -206.0 714.0 -191.0Q694.0 -176.0 694.0 -149.0Q694.0 -122.0 715.0 -105.0Q736.0 -88.0 776.0 -88.0ZM1168.0 0.0V-496.0H1292.0V-440.0H1310.0Q1321.0 -470.0 1346.5 -484.0Q1372.0 -498.0 1406.0 -498.0H1466.0V-386.0H1404.0Q1356.0 -386.0 1325.0 -360.5Q1294.0 -335.0 1294.0 -282.0V0.0ZM1736.0 14.0Q1677.0 14.0 1625.5 -15.5Q1574.0 -45.0 1543.0 -102.0Q1512.0 -159.0 1512.0 -240.0V-256.0Q1512.0 -337.0 1543.0 -394.0Q1574.0 -451.0 1625.0 -480.5Q1676.0 -510.0 1736.0 -510.0Q1781.0 -510.0 1811.5 -499.5Q1842.0 -489.0 1861.0 -473.0Q1880.0 -457.0 1890.0 -439.0H1908.0V-700.0H2034.0V0.0H1910.0V-60.0H1892.0Q1875.0 -32.0 1839.5 -9.0Q1804.0 14.0 1736.0 14.0ZM1774.0 -96.0Q1832.0 -96.0 1871.0 -133.5Q1910.0 -171.0 1910.0 -243.0V-253.0Q1910.0 -325.0 1871.5 -362.5Q1833.0 -400.0 1774.0 -400.0Q1716.0 -400.0 1677.0 -362.5Q1638.0 -325.0 1638.0 -253.0V-243.0Q1638.0 -171.0 1677.0 -133.5Q1716.0 -96.0 1774.0 -96.0ZM2160.0 0.0V-700.0H2600.0V-580.0H2292.0V-411.0H2576.0V-291.0H2292.0V0.0ZM2688.0 0.0V-700.0H2814.0V0.0ZM3180.0 14.0Q3106.0 14.0 3047.0 -16.0Q2988.0 -46.0 2954.0 -103.0Q2920.0 -160.0 2920.0 -240.0V-256.0Q2920.0 -336.0 2954.0 -393.0Q2988.0 -450.0 3047.0 -480.0Q3106.0 -510.0 3180.0 -510.0Q3254.0 -510.0 3313.0 -480.0Q3372.0 -450.0 3406.0 -393.0Q3440.0 -336.0 3440.0 -256.0V-240.0Q3440.0 -160.0 3406.0 -103.0Q3372.0 -46.0 3313.0 -16.0Q3254.0 14.0 3180.0 14.0ZM3180.0 -98.0Q3238.0 -98.0 3276.0 -135.5Q3314.0 -173.0 3314.0 -243.0V-253.0Q3314.0 -323.0 3276.5 -360.5Q3239.0 -398.0 3180.0 -398.0Q3122.0 -398.0 3084.0 -360.5Q3046.0 -323.0 3046.0 -253.0V-243.0Q3046.0 -173.0 3084.0 -135.5Q3122.0 -98.0 3180.0 -98.0ZM3584.0 0.0 3514.0 -496.0H3639.0L3683.0 -85.0H3701.0L3765.0 -496.0H3967.0L4031.0 -85.0H4049.0L4093.0 -496.0H4218.0L4148.0 0.0H3939.0L3875.0 -411.0H3857.0L3793.0 0.0Z"/>
</svg>
